<svg xmlns="http://www.w3.org/2000/svg" width="512" height="512" viewBox="0 0 512 512" fill="none"><path d="M456.056 120C456.032 120 456.016 119.992 456 119.992H423.992C401.936 119.992 384 102.056 384 79.9999C384 66.7599 373.224 55.9839 359.984 55.9839C359.952 55.9839 359.936 55.9999 359.904 55.9999H248C234.8 55.9999 224.056 66.7279 224.024 79.9199C224.024 79.9439 224.008 79.9679 224.008 79.9919C224.008 102.048 206.064 119.992 184.008 119.992H144.072V104C144.072 99.5759 140.496 95.9999 136.072 95.9999H56C51.576 95.9999 48 99.5759 48 104V120.64C20.904 124.544 0 147.848 0 176V400.016C0 430.888 25.128 456.016 56 456.016H456C486.872 456.016 512 430.888 512 400.016V176C512 145.144 486.904 120.032 456.056 120V120ZM64 119.992V112H128.072V119.992H64ZM16 400.016V176C16 153.944 33.944 136 56 136C56.016 136 56.024 135.992 56.04 135.992H88C88.016 135.992 88.024 136 88.04 136C110.096 136 128.04 153.944 128.04 176V399.944C128.04 399.96 128.032 399.968 128.032 399.984C128.032 422.04 110.088 439.984 88.032 439.984C87.976 439.984 87.928 440.016 87.872 440.016H56C33.944 440.016 16 422.072 16 400.016V400.016ZM496 400.016C496 422.072 478.056 440.016 456 440.016H127.112C137.528 429.848 144.016 415.696 144.032 400.04C144.032 400.016 144.04 400 144.04 399.984V176C144.04 160.336 137.544 146.168 127.144 135.992H136.032C136.048 135.992 136.056 136 136.072 136C136.088 136 136.096 135.992 136.112 135.992H184.008C214.864 135.992 239.984 110.888 240.008 80.0319C240.008 80.0159 240.016 79.9999 240.016 79.9839C240.016 75.5759 243.592 71.9999 248 71.9999H359.984C360 71.9999 360.008 71.9919 360.024 71.9919C364.424 72.0159 368 75.5919 368 79.9999C368 110.872 393.12 135.992 423.992 135.992H455.96C455.976 135.992 455.984 136 456 136C478.056 136 496 153.944 496 176V400.016Z" fill="#EC202A"></path><path d="M304.016 183.976C246.672 183.976 200.016 230.632 200.016 287.976C200.016 345.32 246.672 391.976 304.016 391.976C361.36 391.976 408.016 345.32 408.016 287.976C408.016 230.632 361.36 183.976 304.016 183.976ZM304.016 375.976C255.496 375.976 216.016 336.496 216.016 287.976C216.016 239.456 255.496 199.976 304.016 199.976C352.536 199.976 392.016 239.456 392.016 287.976C392.016 336.496 352.536 375.976 304.016 375.976Z" fill="#EC202A"></path><path d="M304.016 215.976C299.592 215.976 296.016 219.552 296.016 223.976C296.016 228.4 299.592 231.976 304.016 231.976C334.888 231.976 360.016 257.104 360.016 287.976C360.016 292.4 363.592 295.976 368.016 295.976C372.44 295.976 376.016 292.4 376.016 287.976C376.016 248.272 343.72 215.976 304.016 215.976Z" fill="#EC202A"></path><path d="M263.992 103.992H344.008C348.432 103.992 352.008 100.416 352.008 95.9922C352.008 91.5682 348.432 87.9922 344.008 87.9922H263.992C259.568 87.9922 255.992 91.5682 255.992 95.9922C255.992 100.416 259.568 103.992 263.992 103.992Z" fill="#EC202A"></path><path d="M288 112C283.576 112 280 115.576 280 120C280 124.424 283.576 128 288 128H320C324.424 128 328 124.424 328 120C328 115.576 324.424 112 320 112H288Z" fill="#EC202A"></path><path d="M434.048 248.2C417 192.56 365.176 151.976 304.016 151.976C229.024 151.976 168.016 212.984 168.016 287.976C168.016 362.968 229.024 423.976 304.016 423.976C365.16 423.976 416.976 383.408 434.048 327.792C455.136 326.696 472 309.344 472 287.992C472 266.64 455.144 249.296 434.048 248.2V248.2ZM304.016 407.976C237.848 407.976 184.016 354.144 184.016 287.976C184.016 221.808 237.848 167.976 304.016 167.976C370.184 167.976 424.016 221.808 424.016 287.976C424.016 354.144 370.184 407.976 304.016 407.976ZM437.888 311.168C439.192 303.616 440.016 295.896 440.016 287.976C440.016 280.064 439.192 272.36 437.888 264.808C448.264 267.456 456 276.808 456 287.992C456 299.184 448.264 308.528 437.888 311.168Z" fill="#EC202A"></path></svg>