<svg xmlns="http://www.w3.org/2000/svg" width="512" height="512" viewBox="0 0 512 512" fill="none"><path d="M507.965 177.223C505.031 173.996 500.844 172.145 496.484 172.145H485.816C483.793 172.145 481.824 172.414 479.937 172.898V131.547C479.937 114.152 465.785 100 448.387 100H280.047C270.422 100 261.793 104.34 256 111.16C250.211 104.34 241.582 100 231.953 100H63.6131C46.2147 100 32.0624 114.152 32.0624 131.547V172.898C30.1795 172.414 28.2069 172.145 26.1834 172.145H15.5155C11.1561 172.145 6.9686 173.996 4.03501 177.223C1.10141 180.449 -0.343898 184.793 0.0701647 189.133L13.8827 334.184C15.0389 346.328 25.1131 355.484 37.3084 355.484H38.9334L32.1405 403.039C31.8319 405.191 32.4725 407.371 33.8983 409.012C35.3241 410.652 37.3905 411.598 39.5624 411.598H55.5975C58.5975 411.598 61.3084 409.809 62.4881 407.051L84.5897 355.484H95.6756C99.8163 355.484 103.176 352.129 103.176 347.984C103.176 343.844 99.8163 340.484 95.6756 340.484H37.3084C32.8866 340.484 29.2342 337.164 28.8163 332.762L14.9999 187.711C14.9959 187.648 14.9803 187.484 15.1327 187.312C15.2889 187.145 15.453 187.145 15.5155 187.145H26.1834C30.3084 187.145 33.8397 190.094 34.578 194.152L48.0975 268.5V275.84C48.0975 288.816 58.6522 299.371 71.6288 299.371H239.969C246.16 299.371 251.797 296.965 256 293.043C260.207 296.965 265.844 299.371 272.031 299.371H440.371C453.348 299.371 463.902 288.816 463.902 275.84V268.5L477.422 194.152C478.16 190.09 481.691 187.145 485.816 187.145H496.484C496.547 187.145 496.711 187.145 496.867 187.312C497.019 187.484 497.004 187.648 497 187.711L483.183 332.762C482.765 337.164 479.113 340.484 474.691 340.484H127.742C123.601 340.484 120.242 343.844 120.242 347.984C120.242 352.129 123.601 355.484 127.742 355.484H427.41L449.512 407.051C450.691 409.809 453.406 411.598 456.406 411.598H472.437C474.609 411.598 476.676 410.652 478.101 409.012C479.527 407.371 480.168 405.191 479.863 403.039L473.07 355.484H474.691C486.887 355.484 496.961 346.328 498.117 334.184L511.93 189.133C512.344 184.789 510.898 180.449 507.965 177.223V177.223ZM50.6522 396.598H48.2108L54.0858 355.484H68.2694L50.6522 396.598ZM63.6131 115H231.953C241.078 115 248.5 122.426 248.5 131.547V219.727C248.5 224.43 244.672 228.258 239.969 228.258H71.6288C66.0858 228.258 60.9881 230.188 56.9608 233.406L49.3358 191.469C48.9061 189.109 48.117 186.898 47.0624 184.859V131.547C47.0624 122.422 54.4881 115 63.6131 115ZM239.969 284.371H71.6288C66.9217 284.371 63.0975 280.543 63.0975 275.84V251.793C63.0975 247.086 66.9256 243.258 71.6288 243.258H239.969C244.672 243.258 248.5 247.086 248.5 251.793V275.84C248.5 280.543 244.672 284.371 239.969 284.371ZM448.906 275.84C448.906 280.543 445.078 284.371 440.371 284.371H272.031C267.328 284.371 263.5 280.543 263.5 275.84V251.789C263.5 247.086 267.328 243.258 272.031 243.258H400.289C404.43 243.258 407.789 239.902 407.789 235.758C407.789 231.617 404.43 228.258 400.289 228.258H272.031C267.328 228.258 263.5 224.43 263.5 219.727V131.551C263.5 122.426 270.922 115 280.047 115H448.387C457.512 115 464.933 122.426 464.933 131.551V184.859C463.879 186.898 463.09 189.109 462.664 191.469L455.039 233.41C451.012 230.191 445.914 228.258 440.371 228.258H432.359C428.215 228.258 424.859 231.617 424.859 235.758C424.859 239.902 428.215 243.258 432.359 243.258H440.371C445.078 243.258 448.902 247.086 448.902 251.789V275.84H448.906ZM463.789 396.598H461.348L443.73 355.484H457.914L463.789 396.598Z" fill="#EC202A"></path><path d="M111.789 171.113C115.93 171.113 119.289 167.754 119.289 163.613C119.289 159.473 115.93 156.113 111.789 156.113H111.707C107.566 156.113 104.25 159.473 104.25 163.613C104.25 167.754 107.648 171.113 111.789 171.113Z" fill="#EC202A"></path><path d="M400.293 156.113H400.211C396.066 156.113 392.75 159.473 392.75 163.613C392.75 167.754 396.148 171.113 400.293 171.113C404.434 171.113 407.793 167.754 407.793 163.613C407.793 159.473 404.434 156.113 400.293 156.113V156.113Z" fill="#EC202A"></path><path d="M183.934 171.113C188.078 171.113 191.434 167.754 191.434 163.613C191.434 159.473 188.078 156.113 183.934 156.113H183.855C179.711 156.113 176.395 159.473 176.395 163.613C176.395 167.754 179.793 171.113 183.934 171.113Z" fill="#EC202A"></path><path d="M328.227 156.113H328.145C324.004 156.113 320.684 159.473 320.684 163.613C320.684 167.754 324.082 171.113 328.227 171.113C332.367 171.113 335.727 167.754 335.727 163.613C335.727 159.473 332.367 156.113 328.227 156.113Z" fill="#EC202A"></path></svg>