<svg xmlns="http://www.w3.org/2000/svg" width="512" height="512" viewBox="0 0 512 512" fill="none"><path d="M493.605 424.305V395.34C493.605 388.703 488.22 383.305 481.599 383.305H248.989C242.087 383.305 236.473 388.92 236.473 395.822V423.195H160.531C156.389 423.195 153.032 426.553 153.032 430.694C153.032 434.835 156.389 438.193 160.531 438.193H243.973H486.107C492.115 438.193 497.002 443.07 497.002 449.065V473.078C497.002 479.089 492.115 483.979 486.107 483.979H25.9292C19.9362 483.979 15.0622 479.089 15.0622 473.078V449.065C15.0622 443.07 19.9362 438.193 25.9292 438.193H125.895C130.037 438.193 133.394 434.835 133.394 430.694C133.394 426.553 130.037 423.195 125.895 423.195H25.9292C11.6672 423.195 0.064209 434.8 0.064209 449.065V473.078C0.064209 487.359 11.6672 498.977 25.9292 498.977H486.106C500.384 498.977 512 487.359 512 473.078V449.065C512 437.405 504.237 427.526 493.605 424.305V424.305ZM251.471 423.195V398.304H478.607V423.195H251.471Z" fill="#EC202A"></path><path d="M27.4441 397.58C29.8251 398.065 32.2541 398.302 34.6871 398.302C42.6131 398.302 50.5711 395.782 56.9481 391.097L221.562 270.468C225.109 275.279 230.327 278.432 236.272 279.344C237.436 279.523 238.599 279.611 239.754 279.611C244.513 279.611 249.12 278.112 252.995 275.258L268.868 263.633C277.353 272.11 286.287 280.312 295.687 288.217C292.565 294.897 293.078 303.038 297.739 309.408L301.377 314.345C305.619 320.149 311.891 323.952 319.036 325.054C320.439 325.271 321.841 325.378 323.233 325.378C328.931 325.378 334.449 323.584 339.102 320.166L430.306 253.316C442.31 244.526 444.932 227.605 436.153 215.595C436.152 215.593 436.15 215.591 436.148 215.588L432.484 210.588C429.202 206.124 424.364 203.198 418.86 202.349C416.871 202.041 414.887 202.029 412.952 202.28C387.569 141.032 350.14 89.8961 301.578 50.0941C304.646 43.4351 304.117 35.3441 299.483 29.0121L295.848 24.0411C291.592 18.2451 285.321 14.4471 278.189 13.3461C271.048 12.2441 263.922 13.9821 258.133 18.2351L166.89 85.0921C154.89 93.9071 152.289 110.832 161.069 122.791L164.721 127.814C168.801 133.361 175.136 136.302 181.551 136.302C182.418 136.302 183.285 136.234 184.149 136.126C188.683 147.459 193.749 158.522 199.345 169.301L183.763 180.741C178.923 184.285 175.75 189.522 174.829 195.487C173.914 201.424 175.348 207.348 178.861 212.183L124.551 251.989C121.211 254.437 120.487 259.13 122.936 262.471C125.383 265.811 130.078 266.534 133.417 264.087L187.71 224.293L212.687 258.378L48.0751 379.005C43.0891 382.667 36.4971 384.117 30.4371 382.884C25.4271 381.864 21.3561 379.089 18.9701 375.067C13.3961 365.685 13.0261 352.325 23.1051 344.943L106.15 284.073C109.49 281.625 110.214 276.932 107.765 273.591C105.317 270.25 100.622 269.528 97.2841 271.975L14.2411 332.843C-1.0199 344.021 -4.4539 365 6.0731 382.722C10.6431 390.427 18.2331 395.703 27.4441 397.58V397.58ZM420.395 219.461L424.048 224.446C427.948 229.785 426.781 237.306 421.444 241.215L330.23 308.071C327.668 309.954 324.503 310.719 321.324 310.229C318.144 309.738 315.361 308.056 313.469 305.469L309.827 300.528C307.924 297.927 308.493 294.26 311.1 292.351L412.268 218.205C413.254 217.479 414.432 217.099 415.656 217.099C415.96 217.099 416.266 217.122 416.574 217.17C418.129 217.41 419.488 218.227 420.395 219.461V219.461ZM399.488 208.976L306.133 277.396C256.607 235.952 220.144 186.242 197.649 129.494L291.169 60.9531C338.49 99.4831 374.894 149.235 399.488 208.976V208.976ZM176.828 118.96L173.18 113.941C169.271 108.618 170.433 101.098 175.762 97.1831L267.005 30.3261C269.061 28.8151 271.503 28.0241 274.029 28.0241C274.649 28.0241 275.275 28.0721 275.901 28.1691C279.079 28.6601 281.87 30.3461 283.75 32.9061L287.379 37.8671C287.379 37.8681 287.38 37.8681 287.381 37.8691C289.161 40.3011 288.795 43.6531 286.632 45.6361C286.551 45.7011 286.472 45.7671 286.394 45.8361C286.309 45.9061 286.227 45.9801 286.136 46.0461L184.982 120.182C184.85 120.278 184.714 120.364 184.576 120.448C184.551 120.464 184.527 120.48 184.503 120.496C181.978 121.976 178.568 121.327 176.828 118.96ZM189.653 197.772C189.962 195.769 191.017 194.018 192.631 192.836L206.599 182.581C220.923 207.615 238.202 231.044 258.355 252.741L244.117 263.169C242.52 264.345 240.541 264.827 238.546 264.519C236.543 264.212 234.791 263.156 233.611 261.543L191.011 203.395C189.825 201.777 189.343 199.78 189.653 197.772V197.772Z" fill="#EC202A"></path></svg>