<svg xmlns="http://www.w3.org/2000/svg" width="512" height="512" viewBox="0 0 512 512" fill="none"><g clip-path="url(#clip0)"><path d="M507.552 161.272L404.786 58.5052C398.865 52.5842 389.23 52.5842 383.309 58.5052L338.017 103.797C332.096 109.717 332.096 119.352 338.017 125.274L343.047 130.304L329.047 144.305L284.151 132.893C273.1 130.082 261.226 133.347 253.164 141.41L215.541 179.033C214.386 179.003 213.229 179.08 212.09 179.278L183.216 184.314L168.953 170.052L173.983 165.022C179.903 159.101 179.903 149.467 173.983 143.546L128.69 98.2522C122.769 92.3312 113.135 92.3332 107.214 98.2522L78.261 127.205C75.332 130.134 75.332 134.883 78.261 137.811C81.19 140.74 85.939 140.74 88.867 137.811L117.82 108.858C117.893 108.786 118.011 108.786 118.084 108.858L163.375 154.149C163.448 154.222 163.448 154.34 163.375 154.413L60.609 257.18C60.536 257.252 60.418 257.252 60.346 257.18L15.054 211.888C14.992 211.826 14.992 211.687 15.054 211.625L65.755 160.924C68.684 157.995 68.684 153.246 65.755 150.318C62.826 147.389 58.077 147.389 55.149 150.318L4.448 201.019C1.58 203.887 0 207.701 0 211.757C0 215.814 1.58 219.628 4.448 222.495L49.74 267.787C52.701 270.748 56.589 272.228 60.478 272.228C64.366 272.228 68.256 270.748 71.216 267.787L76.246 262.757L90.509 277.02L85.473 305.894C84.495 311.5 86.314 317.25 90.339 321.275L124.188 355.124C125.652 356.589 127.572 357.321 129.491 357.321C131.41 357.321 133.33 356.589 134.794 355.124C137.723 352.195 137.723 347.446 134.794 344.518L100.945 310.669C100.37 310.094 100.11 309.273 100.25 308.472L105.955 275.761C106.374 273.355 105.597 270.896 103.87 269.169L86.852 252.152L158.346 180.658L175.364 197.675C176.782 199.094 178.696 199.872 180.667 199.872C181.095 199.872 181.527 199.835 181.956 199.761L197.53 197.045L178.643 215.932C167.02 227.554 167.02 246.465 178.643 258.087C184.273 263.717 191.759 266.817 199.721 266.817C207.683 266.817 215.169 263.716 220.798 258.087L250.533 228.352L360.391 338.28C366.187 344.076 366.187 353.509 360.391 359.305C354.595 365.101 345.163 365.101 339.368 359.305C339.366 359.303 339.365 359.302 339.363 359.3L299.744 319.681C296.815 316.752 292.066 316.752 289.138 319.681C286.209 322.61 286.209 327.359 289.138 330.287L328.762 369.911L344.376 385.525C347.184 388.333 348.73 392.066 348.73 396.037C348.73 400.008 347.184 403.741 344.376 406.549C341.568 409.357 337.835 410.903 333.864 410.903C329.893 410.903 326.16 409.357 323.352 406.549L307.737 390.934L268.114 351.311C265.185 348.382 260.436 348.382 257.508 351.311C254.579 354.24 254.579 358.989 257.508 361.917L297.131 401.54C299.939 404.348 301.485 408.081 301.485 412.052C301.485 416.023 299.938 419.757 297.131 422.564C291.335 428.36 281.902 428.36 276.106 422.564L260.523 406.98C260.512 406.969 260.502 406.959 260.492 406.948C260.49 406.946 260.489 406.945 260.487 406.943L236.484 382.94C233.555 380.011 228.806 380.011 225.878 382.94C222.949 385.869 222.949 390.618 225.878 393.546L249.886 417.553C255.682 423.35 255.682 432.782 249.886 438.578C247.078 441.386 243.345 442.932 239.374 442.932C235.403 442.932 231.67 441.386 228.862 438.578L157.911 367.627C154.982 364.698 150.233 364.698 147.305 367.627C144.376 370.556 144.376 375.305 147.305 378.233L218.256 449.184C223.897 454.825 231.397 457.932 239.375 457.932C247.353 457.932 254.853 454.825 260.494 449.184C264.385 445.293 266.975 440.588 268.265 435.612C279.974 444.745 296.977 443.93 307.74 433.168C311.553 429.355 314.207 424.695 315.528 419.611C320.749 423.689 327.138 425.9 333.868 425.9C341.846 425.9 349.346 422.793 354.987 417.152C360.628 411.511 363.735 404.011 363.735 396.033C363.735 389.296 361.52 382.9 357.434 377.677C362.409 376.385 367.114 373.795 371.003 369.906C381.884 359.024 382.594 341.768 373.14 330.05L383.974 319.216C386.903 316.287 386.903 311.539 383.974 308.61C381.046 305.681 376.297 305.681 373.368 308.61L362.656 319.321L280.324 236.988C291.022 236.254 301.51 231.814 309.669 223.654C312.598 220.725 312.598 215.976 309.669 213.048C306.74 210.119 301.991 210.119 299.063 213.048C293.209 218.902 285.426 222.126 277.147 222.126C271.048 222.126 265.222 220.371 260.235 217.11C260.218 217.099 260.201 217.089 260.185 217.078C258.42 215.919 256.759 214.575 255.231 213.048C253.825 211.641 251.917 210.851 249.928 210.851C247.939 210.851 246.031 211.641 244.625 213.048L210.198 247.475C207.401 250.272 203.683 251.812 199.727 251.812C195.771 251.812 192.053 250.272 189.256 247.475C183.482 241.701 183.482 232.307 189.256 226.533L263.777 152.013C268.118 147.672 274.511 145.914 280.462 147.427L329.493 159.89C329.553 159.905 329.612 159.912 329.672 159.926C329.811 159.958 329.95 159.986 330.09 160.01C330.204 160.029 330.318 160.045 330.432 160.059C330.555 160.074 330.677 160.086 330.801 160.095C330.93 160.104 331.058 160.111 331.186 160.113C331.238 160.114 331.289 160.12 331.341 160.12C331.4 160.12 331.458 160.113 331.517 160.112C331.651 160.109 331.785 160.103 331.918 160.093C332.028 160.085 332.138 160.072 332.248 160.059C332.375 160.043 332.501 160.026 332.626 160.004C332.747 159.983 332.866 159.958 332.986 159.931C333.096 159.906 333.205 159.881 333.313 159.851C333.447 159.815 333.58 159.773 333.713 159.729C333.804 159.699 333.894 159.668 333.983 159.635C334.125 159.582 334.265 159.523 334.404 159.46C334.483 159.425 334.562 159.389 334.639 159.351C334.777 159.283 334.913 159.21 335.048 159.134C335.127 159.089 335.206 159.043 335.283 158.995C335.406 158.919 335.526 158.839 335.645 158.756C335.735 158.693 335.822 158.628 335.909 158.562C336.008 158.485 336.106 158.407 336.203 158.325C336.306 158.238 336.405 158.147 336.503 158.054C336.55 158.01 336.6 157.971 336.646 157.925L353.663 140.908L425.157 212.402L408.14 229.419C406.413 231.146 405.635 233.605 406.055 236.011L410.421 261.047C411.399 266.653 409.58 272.403 405.556 276.428L396.486 285.498C393.557 288.427 393.557 293.176 396.486 296.104C397.95 297.568 399.87 298.301 401.789 298.301C403.708 298.301 405.628 297.569 407.092 296.104L416.162 287.034C423.636 279.56 427.014 268.882 425.198 258.47L421.501 237.271L435.764 223.008L440.794 228.038C443.754 230.998 447.643 232.479 451.532 232.479C455.421 232.479 459.309 230.999 462.27 228.038L507.562 182.746C510.431 179.878 512.01 176.064 512.01 172.008C512 167.953 510.42 164.139 507.552 161.272V161.272ZM496.945 172.142L451.653 217.434C451.58 217.506 451.461 217.505 451.39 217.434L441.057 207.101L358.961 125.005C358.96 125.004 358.958 125.002 358.957 125C358.956 124.998 358.954 124.997 358.952 124.996L348.624 114.668C348.551 114.595 348.551 114.477 348.624 114.404L393.916 69.1122C393.947 69.0812 393.998 69.0662 394.048 69.0662C394.098 69.0662 394.149 69.0822 394.18 69.1122L496.947 171.879C497.008 171.941 497.007 172.08 496.945 172.142Z" fill="#EC202A"></path><path d="M430.334 150.822C421.733 159.423 421.733 173.417 430.334 182.018C434.501 186.185 440.04 188.479 445.933 188.479C451.826 188.479 457.365 186.184 461.531 182.018C470.132 173.417 470.132 159.423 461.531 150.822C452.93 142.221 438.935 142.221 430.334 150.822ZM450.923 171.411C449.59 172.744 447.818 173.479 445.932 173.479C444.046 173.479 442.274 172.745 440.94 171.411C438.188 168.659 438.188 164.181 440.94 161.428C442.316 160.052 444.124 159.364 445.932 159.364C447.74 159.364 449.547 160.052 450.924 161.428C453.676 164.181 453.676 168.659 450.923 171.411V171.411Z" fill="#EC202A"></path><path d="M50.4689 221.765C54.6359 225.932 60.1749 228.226 66.0679 228.226C71.9599 228.226 77.4999 225.931 81.6659 221.765C90.2669 213.164 90.2669 199.17 81.6659 190.569C73.0639 181.969 59.0699 181.969 50.4699 190.569C41.8689 199.17 41.8689 213.164 50.4689 221.765ZM61.0759 201.175C62.4519 199.799 64.2599 199.111 66.0679 199.111C67.8759 199.111 69.6829 199.799 71.0599 201.175C73.8119 203.927 73.8119 208.405 71.0599 211.158C69.7269 212.491 67.9539 213.226 66.0679 213.226C64.1819 213.226 62.4099 212.492 61.0759 211.158C58.3239 208.406 58.3239 203.928 61.0759 201.175Z" fill="#EC202A"></path></g><defs><clipPath id="clip0"><rect width="512" height="512" fill="white"></rect></clipPath></defs></svg>