<svg xmlns="http://www.w3.org/2000/svg" width="512" height="512" viewBox="0 0 512 512" fill="none"><path d="M501.656 250.344L261.656 10.3438C260.156 8.84399 258.121 8.00146 256 8.00146C253.878 8.00146 251.844 8.84399 250.344 10.3438L10.3438 250.344C9.22528 251.463 8.46363 252.888 8.15509 254.439C7.84655 255.991 8.00498 257.599 8.61034 259.061C9.2157 260.523 10.2408 261.772 11.5561 262.651C12.8714 263.53 14.4178 263.999 15.9998 264H55.9998V456H47.9998C45.878 456 43.8432 456.843 42.3429 458.343C40.8426 459.843 39.9998 461.878 39.9998 464V496C39.9998 498.121 40.8426 500.156 42.3429 501.657C43.8432 503.157 45.878 504 47.9998 504H464C466.121 504 468.156 503.157 469.657 501.657C471.157 500.156 472 498.121 472 496V464C472 461.878 471.157 459.843 469.657 458.343C468.156 456.843 466.121 456 464 456H456V264H496C497.582 263.999 499.128 263.53 500.443 262.651C501.759 261.772 502.784 260.523 503.389 259.061C503.995 257.599 504.153 255.991 503.844 254.439C503.536 252.888 502.774 251.463 501.656 250.344V250.344ZM456 488H55.9998V472H456V488ZM216 456H120V312H216V456ZM232 456V304C232 301.878 231.157 299.843 229.657 298.343C228.156 296.843 226.121 296 224 296H112C109.878 296 107.843 296.843 106.343 298.343C104.843 299.843 104 301.878 104 304V456H71.9998V259.312L256 75.3118L440 259.312V456H232ZM451.312 248L261.656 58.3438C260.156 56.844 258.121 56.0015 256 56.0015C253.878 56.0015 251.844 56.844 250.344 58.3438L60.6878 248H35.3118L256 27.3118L476.688 248H451.312Z" fill="#EC202A"></path><path d="M312 208C312 196.924 308.716 186.097 302.562 176.888C296.409 167.679 287.663 160.501 277.43 156.263C267.198 152.024 255.938 150.915 245.075 153.076C234.212 155.237 224.234 160.57 216.402 168.402C208.57 176.234 203.237 186.212 201.076 197.075C198.915 207.938 200.024 219.198 204.263 229.43C208.501 239.663 215.679 248.409 224.888 254.562C234.097 260.716 244.924 264 256 264C270.847 263.983 285.081 258.078 295.579 247.579C306.078 237.081 311.983 222.847 312 208V208ZM216 208C216 200.089 218.346 192.355 222.741 185.777C227.136 179.199 233.384 174.072 240.693 171.045C248.002 168.017 256.044 167.225 263.804 168.769C271.563 170.312 278.69 174.122 284.284 179.716C289.878 185.31 293.688 192.437 295.231 200.196C296.775 207.956 295.983 215.998 292.955 223.307C289.928 230.616 284.801 236.864 278.223 241.259C271.645 245.654 263.911 248 256 248C245.395 247.987 235.228 243.769 227.73 236.27C220.231 228.772 216.013 218.605 216 208V208Z" fill="#EC202A"></path><path d="M416 296H256C253.878 296 251.843 296.843 250.343 298.343C248.843 299.843 248 301.878 248 304V416C248 418.122 248.843 420.157 250.343 421.657C251.843 423.157 253.878 424 256 424H416C418.122 424 420.157 423.157 421.657 421.657C423.157 420.157 424 418.122 424 416V304C424 301.878 423.157 299.843 421.657 298.343C420.157 296.843 418.122 296 416 296ZM408 352H344V312H408V352ZM328 312V352H264V312H328ZM264 368H328V408H264V368ZM344 408V368H408V408H344Z" fill="#EC202A"></path><path d="M152 360H136V392H152V360Z" fill="#EC202A"></path></svg>